<mxfile host="app.diagrams.net" modified="2023-06-30T01:37:32.368Z" agent="Mozilla/5.0 (Windows NT 10.0; Win64; x64; rv:109.0) Gecko/20100101 Firefox/114.0" etag="lDJDuJAIwTgBJa6OVaUQ" version="21.3.2" type="github">
  <diagram name="Página-1" id="xhbtvwb_QjWqmnzTEdYU">
    <mxGraphModel dx="3217" dy="2457" grid="1" gridSize="10" guides="1" tooltips="1" connect="1" arrows="1" fold="1" page="1" pageScale="1" pageWidth="827" pageHeight="1169" math="0" shadow="0">
      <root>
        <mxCell id="0" />
        <mxCell id="1" parent="0" />
        <mxCell id="vaHJbllw1_iTPKxBQM8P-36" style="edgeStyle=orthogonalEdgeStyle;rounded=0;orthogonalLoop=1;jettySize=auto;html=1;entryX=0.003;entryY=0.133;entryDx=0;entryDy=0;entryPerimeter=0;" edge="1" parent="1" source="vaHJbllw1_iTPKxBQM8P-2" target="vaHJbllw1_iTPKxBQM8P-13">
          <mxGeometry relative="1" as="geometry" />
        </mxCell>
        <mxCell id="vaHJbllw1_iTPKxBQM8P-44" style="edgeStyle=orthogonalEdgeStyle;rounded=0;orthogonalLoop=1;jettySize=auto;html=1;entryX=0.5;entryY=0;entryDx=0;entryDy=0;" edge="1" parent="1" source="vaHJbllw1_iTPKxBQM8P-2" target="vaHJbllw1_iTPKxBQM8P-7">
          <mxGeometry relative="1" as="geometry" />
        </mxCell>
        <mxCell id="vaHJbllw1_iTPKxBQM8P-2" value="&lt;br style=&quot;font-size: 45px;&quot;&gt;&lt;b style=&quot;font-size: 45px;&quot;&gt;&lt;font style=&quot;font-size: 45px;&quot;&gt;&lt;i style=&quot;font-size: 45px;&quot;&gt;Wallet&lt;/i&gt;&lt;/font&gt;&lt;/b&gt;&lt;br style=&quot;font-size: 45px;&quot;&gt;" style="html=1;whiteSpace=wrap;labelBackgroundColor=none;labelBorderColor=none;fillColor=#dae8fc;strokeColor=#6c8ebf;fontFamily=Georgia;fontSize=45;" vertex="1" parent="1">
          <mxGeometry x="10" y="-70" width="310" height="160" as="geometry" />
        </mxCell>
        <mxCell id="vaHJbllw1_iTPKxBQM8P-7" value="Clases Principales" style="swimlane;fontStyle=0;childLayout=stackLayout;horizontal=1;startSize=30;fillColor=#f5f5f5;horizontalStack=0;resizeParent=1;resizeParentMax=0;resizeLast=0;collapsible=1;marginBottom=0;whiteSpace=wrap;html=1;gradientColor=#b3b3b3;strokeColor=#666666;" vertex="1" parent="1">
          <mxGeometry x="10" y="170" width="310" height="104" as="geometry" />
        </mxCell>
        <mxCell id="vaHJbllw1_iTPKxBQM8P-8" value="User" style="text;strokeColor=#36393d;fillColor=#ffff88;align=left;verticalAlign=top;spacingLeft=4;spacingRight=4;overflow=hidden;rotatable=0;points=[[0,0.5],[1,0.5]];portConstraint=eastwest;whiteSpace=wrap;html=1;" vertex="1" parent="vaHJbllw1_iTPKxBQM8P-7">
          <mxGeometry y="30" width="310" height="26" as="geometry" />
        </mxCell>
        <mxCell id="vaHJbllw1_iTPKxBQM8P-9" value="Transaction" style="text;strokeColor=#36393d;fillColor=#ffcccc;align=left;verticalAlign=top;spacingLeft=4;spacingRight=4;overflow=hidden;rotatable=0;points=[[0,0.5],[1,0.5]];portConstraint=eastwest;whiteSpace=wrap;html=1;" vertex="1" parent="vaHJbllw1_iTPKxBQM8P-7">
          <mxGeometry y="56" width="310" height="22" as="geometry" />
        </mxCell>
        <mxCell id="vaHJbllw1_iTPKxBQM8P-10" value="PaymentGateway" style="text;strokeColor=#36393d;fillColor=#cdeb8b;align=left;verticalAlign=top;spacingLeft=4;spacingRight=4;overflow=hidden;rotatable=0;points=[[0,0.5],[1,0.5]];portConstraint=eastwest;whiteSpace=wrap;html=1;" vertex="1" parent="vaHJbllw1_iTPKxBQM8P-7">
          <mxGeometry y="78" width="310" height="26" as="geometry" />
        </mxCell>
        <mxCell id="vaHJbllw1_iTPKxBQM8P-13" value="&lt;p style=&quot;margin:0px;margin-top:4px;text-align:center;&quot;&gt;&lt;br&gt;&lt;b&gt;Component Atributes&lt;/b&gt;&lt;/p&gt;&lt;p style=&quot;margin:0px;margin-top:4px;text-align:center;&quot;&gt;&lt;b&gt;&lt;br&gt;&lt;/b&gt;&lt;/p&gt;&lt;hr size=&quot;1&quot;&gt;&lt;ul&gt;&lt;li style=&quot;margin:0px;margin-left:4px;&quot;&gt;ID(int)&lt;/li&gt;&lt;li style=&quot;margin:0px;margin-left:4px;&quot;&gt;Balance(double)&lt;/li&gt;&lt;/ul&gt;&lt;hr size=&quot;1&quot;&gt;&lt;div align=&quot;center&quot;&gt;&lt;b&gt;Methods&lt;/b&gt;&lt;/div&gt;&lt;div align=&quot;center&quot;&gt;&lt;b&gt;&lt;br&gt;&lt;/b&gt;&lt;/div&gt;&lt;div align=&quot;left&quot;&gt;&lt;ul&gt;&lt;li&gt;getBalance(): double&lt;/li&gt;&lt;li&gt;addFunds(amount: double): void&lt;/li&gt;&lt;li&gt;makePayment(amount: double): boolean&lt;/li&gt;&lt;/ul&gt;&lt;/div&gt;" style="verticalAlign=top;align=left;overflow=fill;fontSize=12;fontFamily=Helvetica;html=1;whiteSpace=wrap;fillColor=#cce5ff;strokeColor=#36393d;" vertex="1" parent="1">
          <mxGeometry x="440" y="-120" width="330" height="240" as="geometry" />
        </mxCell>
        <mxCell id="vaHJbllw1_iTPKxBQM8P-16" value="&lt;p style=&quot;margin:0px;margin-top:4px;text-align:center;&quot;&gt;&lt;i&gt;&lt;b&gt;Component Atributes&lt;br&gt;&lt;/b&gt;&lt;/i&gt;&lt;/p&gt;&lt;hr size=&quot;1&quot;&gt;&lt;ul&gt;&lt;li&gt;id: int&lt;/li&gt;&lt;li&gt;name: string&lt;/li&gt;&lt;li&gt;email: string&lt;/li&gt;&lt;li&gt;password: string&lt;/li&gt;&lt;/ul&gt;&lt;p style=&quot;margin:0px;margin-left:4px;&quot;&gt;&lt;/p&gt;&lt;hr size=&quot;1&quot;&gt;&lt;div align=&quot;center&quot;&gt;&lt;b&gt;Methods&lt;/b&gt;&lt;br&gt;&lt;/div&gt;&lt;div&gt;&lt;br&gt;&lt;/div&gt;&lt;ul&gt;&lt;li&gt;getName(): string&lt;/li&gt;&lt;li&gt;getEmail(): string&lt;/li&gt;&lt;li&gt;setPassword(password: string): void&lt;/li&gt;&lt;/ul&gt;&lt;p style=&quot;margin:0px;margin-left:4px;&quot;&gt;&lt;/p&gt;" style="verticalAlign=top;align=left;overflow=fill;fontSize=12;fontFamily=Helvetica;html=1;whiteSpace=wrap;fillColor=#ffff88;strokeColor=#36393d;" vertex="1" parent="1">
          <mxGeometry x="440" y="320" width="330" height="230" as="geometry" />
        </mxCell>
        <mxCell id="vaHJbllw1_iTPKxBQM8P-18" value="&lt;p style=&quot;margin:0px;margin-top:4px;text-align:center;&quot;&gt;&lt;i&gt;&lt;b&gt;Component Atributes&lt;br&gt;&lt;/b&gt;&lt;/i&gt;&lt;/p&gt;&lt;hr size=&quot;1&quot;&gt;&lt;ul&gt;&lt;li&gt;id: int&lt;/li&gt;&lt;li&gt;amount: double&lt;/li&gt;&lt;li&gt;category: string&lt;/li&gt;&lt;li&gt;date: Date&lt;/li&gt;&lt;/ul&gt;&lt;p style=&quot;margin:0px;margin-left:4px;&quot;&gt;&lt;/p&gt;&lt;hr size=&quot;1&quot;&gt;&lt;div align=&quot;center&quot;&gt;&lt;b&gt;Methods&lt;/b&gt;&lt;br&gt;&lt;/div&gt;&lt;div&gt;&lt;br&gt;&lt;/div&gt;&lt;div&gt;&lt;ul&gt;&lt;li&gt;getAmount(): double&lt;/li&gt;&lt;li&gt;getCategory(): string&lt;/li&gt;&lt;li&gt;getDate(): Date&lt;/li&gt;&lt;/ul&gt;&lt;/div&gt;&lt;p style=&quot;margin:0px;margin-left:4px;&quot;&gt;&lt;/p&gt;" style="verticalAlign=top;align=left;overflow=fill;fontSize=12;fontFamily=Helvetica;html=1;whiteSpace=wrap;fillColor=#ffcccc;strokeColor=#36393d;" vertex="1" parent="1">
          <mxGeometry x="80" y="600" width="330" height="230" as="geometry" />
        </mxCell>
        <mxCell id="vaHJbllw1_iTPKxBQM8P-20" value="&lt;div align=&quot;left&quot;&gt;&lt;br&gt;&lt;/div&gt;&lt;div align=&quot;left&quot;&gt;&lt;ul&gt;&lt;li&gt;La&amp;nbsp; Wallet tiene un atributo user que representa al propietario de la billetera.&lt;/li&gt;&lt;li&gt;La multiplicidad de la relación es 1:1, ya que una billetera solo pertenece a un usuario y un usuario solo tiene una billetera.&lt;/li&gt;&lt;/ul&gt;&lt;/div&gt;" style="html=1;dropTarget=0;whiteSpace=wrap;align=left;fillColor=#fff2cc;gradientColor=#ffd966;strokeColor=#d6b656;" vertex="1" parent="1">
          <mxGeometry x="760" y="154" width="330" height="120" as="geometry" />
        </mxCell>
        <mxCell id="vaHJbllw1_iTPKxBQM8P-21" value="" style="shape=module;jettyWidth=8;jettyHeight=4;" vertex="1" parent="vaHJbllw1_iTPKxBQM8P-20">
          <mxGeometry x="1" width="20" height="20" relative="1" as="geometry">
            <mxPoint x="-27" y="7" as="offset" />
          </mxGeometry>
        </mxCell>
        <mxCell id="vaHJbllw1_iTPKxBQM8P-24" value="" style="endArrow=classic;html=1;rounded=0;entryX=0.5;entryY=0;entryDx=0;entryDy=0;" edge="1" parent="1" target="vaHJbllw1_iTPKxBQM8P-20">
          <mxGeometry width="50" height="50" relative="1" as="geometry">
            <mxPoint x="770" as="sourcePoint" />
            <mxPoint x="820" y="-50" as="targetPoint" />
          </mxGeometry>
        </mxCell>
        <mxCell id="vaHJbllw1_iTPKxBQM8P-25" value="" style="endArrow=classic;html=1;rounded=0;entryX=0.476;entryY=1.033;entryDx=0;entryDy=0;entryPerimeter=0;" edge="1" parent="1" target="vaHJbllw1_iTPKxBQM8P-20">
          <mxGeometry width="50" height="50" relative="1" as="geometry">
            <mxPoint x="770" y="430" as="sourcePoint" />
            <mxPoint x="1045" y="590" as="targetPoint" />
          </mxGeometry>
        </mxCell>
        <mxCell id="vaHJbllw1_iTPKxBQM8P-26" value="&lt;ul&gt;&lt;li&gt;La Wallet tiene una lista de transacciones que almacena las transacciones realizadas en la billetera.&lt;/li&gt;&lt;li&gt;La multiplicidad de la relación es 0..n, ya que una billetera puede tener varias transacciones.&lt;/li&gt;&lt;/ul&gt;" style="html=1;dropTarget=0;whiteSpace=wrap;align=left;fillColor=#ffcccc;strokeColor=#36393d;" vertex="1" parent="1">
          <mxGeometry x="80" y="830" width="330" height="120" as="geometry" />
        </mxCell>
        <mxCell id="vaHJbllw1_iTPKxBQM8P-27" value="" style="shape=module;jettyWidth=8;jettyHeight=4;" vertex="1" parent="vaHJbllw1_iTPKxBQM8P-26">
          <mxGeometry x="1" width="20" height="20" relative="1" as="geometry">
            <mxPoint x="-27" y="7" as="offset" />
          </mxGeometry>
        </mxCell>
        <mxCell id="vaHJbllw1_iTPKxBQM8P-37" style="edgeStyle=orthogonalEdgeStyle;rounded=0;orthogonalLoop=1;jettySize=auto;html=1;entryX=0;entryY=0.5;entryDx=0;entryDy=0;" edge="1" parent="1" source="vaHJbllw1_iTPKxBQM8P-28" target="vaHJbllw1_iTPKxBQM8P-2">
          <mxGeometry relative="1" as="geometry" />
        </mxCell>
        <mxCell id="vaHJbllw1_iTPKxBQM8P-28" value="&lt;ul&gt;&lt;li&gt;La Wallet depende de PaymentGateway para realizar pagos.&lt;/li&gt;&lt;li&gt;La clase PaymentGateway puede tener atributos y métodos adicionales, como procesar el pago y verificar la autenticidad.&lt;/li&gt;&lt;/ul&gt;" style="html=1;dropTarget=0;whiteSpace=wrap;align=left;fillColor=#d5e8d4;gradientColor=#97d077;strokeColor=#82b366;" vertex="1" parent="1">
          <mxGeometry x="-620" y="90" width="330" height="120" as="geometry" />
        </mxCell>
        <mxCell id="vaHJbllw1_iTPKxBQM8P-29" value="" style="shape=module;jettyWidth=8;jettyHeight=4;" vertex="1" parent="vaHJbllw1_iTPKxBQM8P-28">
          <mxGeometry x="1" width="20" height="20" relative="1" as="geometry">
            <mxPoint x="-27" y="7" as="offset" />
          </mxGeometry>
        </mxCell>
        <mxCell id="vaHJbllw1_iTPKxBQM8P-40" style="edgeStyle=orthogonalEdgeStyle;rounded=0;orthogonalLoop=1;jettySize=auto;html=1;entryX=0.639;entryY=1.025;entryDx=0;entryDy=0;entryPerimeter=0;" edge="1" parent="1" source="vaHJbllw1_iTPKxBQM8P-32" target="vaHJbllw1_iTPKxBQM8P-28">
          <mxGeometry relative="1" as="geometry" />
        </mxCell>
        <mxCell id="vaHJbllw1_iTPKxBQM8P-32" value="&lt;p style=&quot;margin:0px;margin-top:4px;text-align:center;&quot;&gt;&lt;i&gt;&lt;b&gt;Component Atributes&lt;br&gt;&lt;/b&gt;&lt;/i&gt;&lt;/p&gt;&lt;hr size=&quot;1&quot;&gt;&lt;ul&gt;&lt;li&gt;id: int (identificador único del PaymentGateway)&lt;/li&gt;&lt;li&gt;name: string (nombre del PaymentGateway, por ejemplo, &quot;PayPal&quot;, &quot;Stripe&quot;, etc.)&lt;/li&gt;&lt;/ul&gt;&lt;p style=&quot;margin:0px;margin-left:4px;&quot;&gt;&lt;/p&gt;&lt;hr size=&quot;1&quot;&gt;&lt;div align=&quot;center&quot;&gt;&lt;b&gt;Methods&lt;/b&gt;&lt;br&gt;&lt;/div&gt;&lt;div&gt;&lt;br&gt;&lt;/div&gt;&lt;div&gt;&lt;ul&gt;&lt;li&gt;&lt;p&gt;processPayment(amount: double, wallet: Wallet): boolean&lt;/p&gt;&lt;ul&gt;&lt;li&gt;Descripción: procesa un pago en la billetera especificada.&lt;/li&gt;&lt;li&gt;Parámetros:&lt;ul&gt;&lt;li&gt;amount: double (monto del pago a procesar)&lt;/li&gt;&lt;li&gt;wallet: Wallet (billetera en la que se realizará el pago)&lt;/li&gt;&lt;/ul&gt;&lt;/li&gt;&lt;li&gt;Retorna: boolean (indica si el pago se procesó con éxito o no)&lt;/li&gt;&lt;/ul&gt;&lt;/li&gt;&lt;li&gt;&lt;p&gt;verifyAuthenticity(paymentInfo: PaymentInfo): boolean&lt;/p&gt;&lt;ul&gt;&lt;li&gt;Descripción: verifica la autenticidad de la información de pago proporcionada.&lt;/li&gt;&lt;li&gt;Parámetros:&lt;ul&gt;&lt;li&gt;paymentInfo: PaymentInfo (información del pago a verificar)&lt;/li&gt;&lt;/ul&gt;&lt;/li&gt;&lt;li&gt;Retorna: boolean (indica si la autenticidad de la información se verificó correctamente o no)&lt;/li&gt;&lt;/ul&gt;&lt;/li&gt;&lt;li&gt;&lt;p&gt;updateTransactionStatus(transaction: Transaction, status: string): void&lt;/p&gt;&lt;ul&gt;&lt;li&gt;Descripción: actualiza el estado de una transacción en función de la respuesta del PaymentGateway.&lt;/li&gt;&lt;li&gt;Parámetros:&lt;ul&gt;&lt;li&gt;transaction: Transaction (transacción a actualizar)&lt;/li&gt;&lt;li&gt;status: string (estado de la transacción, por ejemplo, &quot;Aprobado&quot;, &quot;Rechazado&quot;, etc.)&lt;/li&gt;&lt;/ul&gt;&lt;/li&gt;&lt;li&gt;Retorna: void&lt;/li&gt;&lt;/ul&gt;&lt;/li&gt;&lt;/ul&gt;&lt;/div&gt;&lt;p style=&quot;margin:0px;margin-left:4px;&quot;&gt;&lt;/p&gt;" style="verticalAlign=top;align=left;overflow=fill;fontSize=12;fontFamily=Helvetica;html=1;whiteSpace=wrap;fillColor=#cdeb8b;strokeColor=#36393d;" vertex="1" parent="1">
          <mxGeometry x="-710" y="274" width="600" height="480" as="geometry" />
        </mxCell>
        <mxCell id="vaHJbllw1_iTPKxBQM8P-34" style="edgeStyle=orthogonalEdgeStyle;rounded=0;orthogonalLoop=1;jettySize=auto;html=1;entryX=0.003;entryY=0.361;entryDx=0;entryDy=0;entryPerimeter=0;" edge="1" parent="1" source="vaHJbllw1_iTPKxBQM8P-9" target="vaHJbllw1_iTPKxBQM8P-18">
          <mxGeometry relative="1" as="geometry" />
        </mxCell>
        <mxCell id="vaHJbllw1_iTPKxBQM8P-35" style="edgeStyle=orthogonalEdgeStyle;rounded=0;orthogonalLoop=1;jettySize=auto;html=1;entryX=0.527;entryY=0.009;entryDx=0;entryDy=0;entryPerimeter=0;" edge="1" parent="1" source="vaHJbllw1_iTPKxBQM8P-8" target="vaHJbllw1_iTPKxBQM8P-16">
          <mxGeometry relative="1" as="geometry" />
        </mxCell>
        <mxCell id="vaHJbllw1_iTPKxBQM8P-39" style="edgeStyle=orthogonalEdgeStyle;rounded=0;orthogonalLoop=1;jettySize=auto;html=1;entryX=1;entryY=0.673;entryDx=0;entryDy=0;entryPerimeter=0;" edge="1" parent="1" source="vaHJbllw1_iTPKxBQM8P-10" target="vaHJbllw1_iTPKxBQM8P-32">
          <mxGeometry relative="1" as="geometry" />
        </mxCell>
      </root>
    </mxGraphModel>
  </diagram>
</mxfile>
